<?xml version="1.0" encoding="UTF-8"?>
<svg id="uuid-0dd598c2-b708-4c7a-8e04-56727e4d8160" data-name="Capa 1" xmlns="http://www.w3.org/2000/svg" xmlns:xlink="http://www.w3.org/1999/xlink" viewBox="0 0 1806.43 2160">
  <defs>
    <linearGradient id="uuid-24f6fca2-6e9c-49a3-a735-d3de34fa58b3" data-name="Degradado sin nombre" x1="870.72" y1="500.86" x2="1244.98" y2="-147.37" gradientUnits="userSpaceOnUse">
      <stop offset="0" stop-color="#f77062"/>
      <stop offset="1" stop-color="#fe5196"/>
    </linearGradient>
    <linearGradient id="uuid-08afa010-e235-4308-aed4-3a393fdf04eb" data-name="Degradado sin nombre" x1="677.65" y1="2206.54" x2="1126.11" y2="1429.79" xlink:href="#uuid-24f6fca2-6e9c-49a3-a735-d3de34fa58b3"/>
    <linearGradient id="uuid-3770643d-fdd8-4bd3-89e6-69939004a228" data-name="Degradado sin nombre" x1="903.21" y1="473.41" x2="903.21" y2="1390.16" xlink:href="#uuid-24f6fca2-6e9c-49a3-a735-d3de34fa58b3"/>
  </defs>
  <path d="M410.49,117.77c-21.13-39.94-37.87-79.91-51.13-117.77h85.35c10.41,26.87,22.84,54.78,37.65,82.55,47.26,88.59,108.86,158.09,183.09,206.57,92.73,60.57,206.64,88.94,338.56,84.31,138.42-4.86,272.6-21.85,398.81-50.52,100.69-22.87,196.53-53.16,284.85-90.04,46.91-19.59,86.51-38.86,118.76-56.09v89.95c-26.05,12.88-55.36,26.37-87.93,39.97-92.56,38.64-192.8,70.34-297.96,94.23-131.1,29.77-270.3,47.42-413.73,52.45-149.35,5.24-279.4-27.79-386.48-98.17-85.71-56.34-156.31-136.23-209.84-237.44Z" style="fill: url(#uuid-24f6fca2-6e9c-49a3-a735-d3de34fa58b3); stroke-width: 0px;"/>
  <path d="M1806.43,1822.57v80.07c-54.58-1.98-106.01-7.69-147.84-12.34-228.45-25.37-455.49-72.31-674.82-139.51-111.17-34.06-221.7-73.79-328.52-118.07-32.41-13.44-64.87-28.96-96.26-43.96-67.56-32.3-137.42-65.7-207.79-78.48-59.27-10.76-128.84-5.51-147.14,25.36-13.39,22.57-13.66,54.89-.82,96.04,13.23,42.4,37.34,84.4,54.31,112.31,43.09,70.8,96.62,135.97,159.13,193.68,115.21,106.38,259.21,182.95,415.36,222.33h-230.55c-87.47-43.15-168.26-98.15-239.08-163.55-67.98-62.76-126.25-133.71-173.2-210.88-19.17-31.5-46.48-79.26-62.34-130.06-19.88-63.71-17.06-117.76,8.37-160.67,14.76-24.89,46.66-56.62,114.83-66.5,49-7.1,97.05-.11,115.43,3.23,80.91,14.69,155.68,50.44,228,85.01,31.85,15.23,61.93,29.61,92.39,42.24,104.47,43.31,212.57,82.16,321.32,115.48,214.57,65.74,436.7,111.66,660.21,136.49,39.58,4.39,88.18,9.8,139.01,11.78Z" style="fill: url(#uuid-08afa010-e235-4308-aed4-3a393fdf04eb); stroke-width: 0px;"/>
  <path d="M82.45,642.77c.42,2.77.84,5.52,1.24,8.21,13.99,95.31,51.35,185.68,103.54,266.32.98,1.52,1.97,3.03,2.97,4.55,55.11,83.78,126.58,155.56,212.45,213.36,92.43,62.21,205.91,108.54,337.29,137.69,111.41,24.73,236.02,37.26,370.4,37.26h1.55c116.83-.09,233.25-12.26,346.04-36.19,31.78-6.74,64.21-14.6,95.57-22.2,71.6-17.35,145.63-35.29,221.52-42.58,10.47-1.01,20.95-1.75,31.41-2.21v80.1c-7.92.39-15.83.98-23.75,1.74-70.24,6.75-138.29,23.24-210.34,40.7-31.91,7.73-64.91,15.73-97.81,22.71-118.22,25.08-240.21,37.84-362.58,37.93h-1.61c-140.2,0-270.64-13.17-387.73-39.16-141.18-31.33-263.86-81.6-364.63-149.43-94.71-63.74-173.65-143.07-234.62-235.76C59.23,868.31,12.71,753.1,1.42,636.29c-1.51-15.64-2.02-31.42-.54-47.09,2.89-30.72,14.06-61.67,36.35-83.01,16.46-15.76,38.14-25.44,60.52-29.68,51.72-9.79,109.09,5.22,157.6,22.8,48.87,17.7,94.85,42.24,140.6,66.68,11.68,6.24,23.76,12.69,35.53,18.82,189.16,98.53,422.05,175.34,692.2,228.3,205.56,40.29,385.21,49.14,533.96,26.28,53.39-8.2,103.13-20.58,148.78-37v84.5c-42.72,13.62-88.29,24.15-136.63,31.58-157.92,24.26-346.84,15.22-561.49-26.86-277.67-54.43-517.82-133.78-713.78-235.84-12.14-6.33-24.4-12.88-36.26-19.21-46.28-24.7-92.6-50.28-142.65-66.65-34.71-11.35-112.21-37.52-131.41,9.27-8.13,19.81-4.95,42.61-1.76,63.58Z" style="fill: url(#uuid-3770643d-fdd8-4bd3-89e6-69939004a228); stroke-width: 0px;"/>
</svg>