<?xml version="1.0" encoding="UTF-8"?>
<svg id="Capa_1" data-name="Capa 1" xmlns="http://www.w3.org/2000/svg" xmlns:xlink="http://www.w3.org/1999/xlink" version="1.1" viewBox="0 0 1920 1080">
  <defs>
    <style>
      .cls-1 {
        fill: url(#Degradado_sin_nombre_8);
        stroke-width: 0px;
      }
    </style>
    <linearGradient id="Degradado_sin_nombre_8" data-name="Degradado sin nombre 8" x1="1606.6" y1="838.81" x2="359.98" y2="-170.68" gradientUnits="userSpaceOnUse">
      <stop offset="0" stop-color="#84fab0"/>
      <stop offset="1" stop-color="#8fd3f4"/>
    </linearGradient>
  </defs>
  <path class="cls-1" d="M1816.07,254.07c-6.28,44.27-24.26,82.65-53.43,114.07-24.85,26.76-58.09,48.62-98.81,64.98-58.77,23.62-132.52,36.19-225.48,38.44-31.94.78-64.21.5-95.41.23-47.69-.41-97.02-.83-144.79,2.58-68.19,4.88-170.81,19.29-272.48,60.26-96.24,38.78-168.58,92.1-215.01,158.47-26.73,38.23-36.35,82-25.71,117.09,12.2,40.28,46.71,75.04,105.48,106.28,53.5,28.43,115.75,47.73,165.77,63.23,4.78,1.48,9.44,2.92,13.96,4.33,135.62,42.35,283.14,74.42,441.13,95.97h-320.78c-47.3-11.79-93.39-24.69-138.23-38.69-4.48-1.4-9.1-2.83-13.84-4.3-52.43-16.25-117.67-36.47-176.17-67.56-33.4-17.75-60.13-36.62-81.7-57.67-25.94-25.32-43.79-53.64-53.04-84.19-8.52-28.09-9.16-58.21-1.92-89.55,6.34-27.39,18.74-54.82,35.88-79.32,53.21-76.07,134.54-136.54,241.76-179.74,108.9-43.89,218.14-59.27,290.62-64.46,50.16-3.58,100.71-3.15,149.59-2.73,30.71.27,62.48.54,93.44-.21,85.66-2.08,152.57-13.24,204.56-34.13,68.86-27.67,106.54-70.78,115.2-131.81,1.9-13.36,1.02-23.87-2.62-31.26-5.18-10.52-18.62-18.79-35.06-21.57-62.85-10.62-118.42,16.13-177.26,44.46-16.93,8.14-34.43,16.57-52.3,24.19-137.23,58.51-215.34,81.45-268.06,94.9-78.65,20.07-160.1,32.19-242.09,36.02-81.57,3.81-163.78-.58-244.33-13.05-67.95-10.52-126.03-24.57-177.56-42.97-62.53-22.32-116.05-51.02-163.61-87.72-45.6-35.2-84.29-77.18-114.99-124.79-24.94-38.67-44.05-80.2-57.01-123.85h62.99c11.01,31.97,25.89,62.55,44.45,91.34,26.99,41.85,61.04,78.79,101.22,109.8,42.49,32.79,90.62,58.54,147.12,78.71,47.93,17.11,102.41,30.25,166.57,40.18,76.6,11.86,154.78,16.03,232.35,12.41,77.94-3.64,155.34-15.15,230.06-34.21,96.4-24.6,189.24-62.07,259.35-91.96,16.62-7.09,33.49-15.21,49.81-23.07,64.71-31.15,131.62-63.36,213.3-49.55,35.64,6.03,65.13,26.3,78.88,54.23,9.06,18.4,11.82,40.67,8.2,66.19Z"/>
</svg>