<?xml version="1.0" encoding="UTF-8"?>
<svg id="uuid-d81a43df-ead9-4bd9-93c7-dcbf50046559" data-name="Capa 1" xmlns="http://www.w3.org/2000/svg" xmlns:xlink="http://www.w3.org/1999/xlink" viewBox="0 0 1051.89 2168.07">
  <defs>
    <linearGradient id="uuid-d38e55d2-30f7-4beb-88be-6f17f50daf96" data-name="Degradado sin nombre 16" x1="877.58" y1="930.18" x2="112.66" y2="-84.9" gradientUnits="userSpaceOnUse">
      <stop offset="0" stop-color="#f77062"/>
      <stop offset="1" stop-color="#fe5196"/>
    </linearGradient>
    <linearGradient id="uuid-281127a6-194e-4acd-aacd-cee1a6d84256" data-name="Degradado sin nombre 16" x1="1195.15" y1="2060.12" x2="349.7" y2="938.17" xlink:href="#uuid-d38e55d2-30f7-4beb-88be-6f17f50daf96"/>
  </defs>
  <path d="M163.57,440.15C76.94,284.34,27.64,122.77,0,0h82.1c27.02,114.72,73.26,260.75,151.39,401.27,42.93,77.2,91.63,145.43,144.75,202.77,57.43,62,120.82,112.07,188.38,148.82,10.48,5.69,21.1,11.04,31.57,15.88,65.08,30.12,139.09,44.66,208.39,40.94,73.29-3.94,138.55-27.67,188.73-68.65,20.52-16.75,39.05-35.91,56.58-56.71v113.7c-1.97,1.68-3.97,3.34-5.98,4.98-63.42,51.78-144.69,81.71-235.05,86.56-41.48,2.23-83.94-.88-126.2-9.25-41.57-8.23-81.96-21.33-120.06-38.96-12.03-5.57-24.21-11.7-36.2-18.21-75.22-40.91-145.49-96.34-208.85-164.74-57.46-62.03-109.94-135.46-155.98-218.25Z" style="fill: url(#uuid-d38e55d2-30f7-4beb-88be-6f17f50daf96); stroke-width: 0px;"/>
  <path d="M193.41,1241.98c-3.03,41.62,2.86,89.77,17.02,139.25,32.84,114.7,94.4,223.06,182.98,322.08,80.83,90.36,184.34,171.78,299.32,235.44,103.82,57.49,221.37,105.28,359.16,146.02v83.3c-5.59-1.59-11.13-3.2-16.64-4.81-146.05-42.79-270.76-93.33-381.27-154.52-60.2-33.33-117.52-71.18-170.39-112.51-55.04-43.03-105.44-89.99-149.8-139.58-96.7-108.1-164.08-227-200.27-353.4-16.72-58.41-23.6-116.19-19.89-167.08,4.69-64.49,25.69-118.56,62.4-160.7,26.01-29.86,60.27-53.66,101.83-70.73,33.76-13.86,72.65-23.41,115.57-28.37,112.46-12.99,224.21,3.97,332.28,20.37,28.01,4.25,56.96,8.64,85.21,12.39,86.47,11.46,166.49,16.51,240.97,15.11v80.01c-8.05.15-16.17.22-24.34.22-71.08,0-146.54-5.35-227.14-16.04-29-3.84-58.33-8.29-86.7-12.6-107.61-16.33-209.26-31.76-311.1-19.99-35.63,4.12-67.38,11.82-94.35,22.9-29.95,12.3-54.14,28.88-71.91,49.28-25.08,28.79-39.53,67.13-42.94,113.96Z" style="fill: url(#uuid-281127a6-194e-4acd-aacd-cee1a6d84256); stroke-width: 0px;"/>
</svg>